<svg width="41" height="41" viewBox="0 0 41 41" fill="none" xmlns="http://www.w3.org/2000/svg">
<path d="M36.9167 0.25H3.58333C2.69928 0.25 1.85143 0.601189 1.22631 1.22631C0.601189 1.85143 0.25 2.69928 0.25 3.58333V36.9167C0.25 37.8007 0.601189 38.6486 1.22631 39.2737C1.85143 39.8988 2.69928 40.25 3.58333 40.25H36.9167C37.8007 40.25 38.6486 39.8988 39.2737 39.2737C39.8988 38.6486 40.25 37.8007 40.25 36.9167V3.58333C40.25 2.69928 39.8988 1.85143 39.2737 1.22631C38.6486 0.601189 37.8007 0.25 36.9167 0.25ZM31.4292 29.0708C31.584 29.2257 31.7068 29.4095 31.7907 29.6118C31.8745 29.8142 31.9176 30.031 31.9176 30.25C31.9176 30.469 31.8745 30.6858 31.7907 30.8882C31.7068 31.0905 31.584 31.2743 31.4292 31.4292C31.2743 31.584 31.0905 31.7068 30.8882 31.7907C30.6858 31.8745 30.469 31.9176 30.25 31.9176C30.031 31.9176 29.8142 31.8745 29.6118 31.7907C29.4095 31.7068 29.2257 31.584 29.0708 31.4292L20.25 22.6062L11.4292 31.4292C11.1164 31.7419 10.6923 31.9176 10.25 31.9176C9.80773 31.9176 9.38357 31.7419 9.07083 31.4292C8.7581 31.1164 8.58241 30.6923 8.58241 30.25C8.58241 29.8077 8.7581 29.3836 9.07083 29.0708L17.8937 20.25L9.07083 11.4292C8.7581 11.1164 8.58241 10.6923 8.58241 10.25C8.58241 9.80773 8.7581 9.38357 9.07083 9.07083C9.38357 8.7581 9.80773 8.58241 10.25 8.58241C10.6923 8.58241 11.1164 8.7581 11.4292 9.07083L20.25 17.8937L29.0708 9.07083C29.3836 8.7581 29.8077 8.58241 30.25 8.58241C30.6923 8.58241 31.1164 8.7581 31.4292 9.07083C31.7419 9.38357 31.9176 9.80773 31.9176 10.25C31.9176 10.6923 31.7419 11.1164 31.4292 11.4292L22.6062 20.25L31.4292 29.0708Z" fill="#B72020"/>
</svg>
