<svg xmlns="http://www.w3.org/2000/svg" width="126" height="67" viewBox="0 0 126 67" fill="none">

<path d="M71.999 24.0566C71.2197 24.7448 70.5202 25.0889 69.9004 25.0889C69.5358 25.0889 69.2327 24.9704 68.9912 24.7334C68.7497 24.4919 68.6289 24.1911 68.6289 23.8311C68.6289 23.3434 68.8385 22.9059 69.2578 22.5186C69.6771 22.1266 70.5908 21.6071 71.999 20.96V20.3174C71.999 19.8343 71.9717 19.5312 71.917 19.4082C71.8669 19.2806 71.7689 19.1712 71.623 19.0801C71.4772 18.9844 71.3132 18.9365 71.1309 18.9365C70.8346 18.9365 70.5908 19.0026 70.3994 19.1348C70.2809 19.2168 70.2217 19.3125 70.2217 19.4219C70.2217 19.5176 70.2855 19.6361 70.4131 19.7773C70.5863 19.9733 70.6729 20.1624 70.6729 20.3447C70.6729 20.568 70.5885 20.7594 70.4199 20.9189C70.2559 21.0739 70.0394 21.1514 69.7705 21.1514C69.4834 21.1514 69.2419 21.0648 69.0459 20.8916C68.8545 20.7184 68.7588 20.5156 68.7588 20.2832C68.7588 19.9551 68.8887 19.6429 69.1484 19.3467C69.4082 19.0459 69.7705 18.8158 70.2354 18.6562C70.7002 18.4967 71.1833 18.417 71.6846 18.417C72.2907 18.417 72.7692 18.5469 73.1201 18.8066C73.4756 19.0618 73.7057 19.3398 73.8105 19.6406C73.8743 19.832 73.9062 20.2718 73.9062 20.96V23.4414C73.9062 23.7331 73.9176 23.9176 73.9404 23.9951C73.9632 24.068 73.9974 24.1227 74.043 24.1592C74.0885 24.1956 74.141 24.2139 74.2002 24.2139C74.3187 24.2139 74.4395 24.1296 74.5625 23.9609L74.7676 24.125C74.5397 24.4622 74.3027 24.7083 74.0566 24.8633C73.8151 25.0137 73.5394 25.0889 73.2295 25.0889C72.8649 25.0889 72.5801 25.0046 72.375 24.8359C72.1699 24.6628 72.0446 24.403 71.999 24.0566ZM71.999 23.5576V21.418C71.4476 21.7415 71.0374 22.0879 70.7686 22.457C70.5908 22.7031 70.502 22.9515 70.502 23.2021C70.502 23.4118 70.5771 23.5964 70.7275 23.7559C70.8415 23.8789 71.001 23.9404 71.2061 23.9404C71.4339 23.9404 71.6982 23.8128 71.999 23.5576ZM78.124 18.6084V20.0576C78.5479 19.3968 78.9193 18.9593 79.2383 18.7451C79.5573 18.5264 79.8649 18.417 80.1611 18.417C80.4163 18.417 80.6191 18.4967 80.7695 18.6562C80.9245 18.8112 81.002 19.0322 81.002 19.3193C81.002 19.6247 80.9268 19.8617 80.7764 20.0303C80.6305 20.1989 80.4528 20.2832 80.2432 20.2832C80.0016 20.2832 79.792 20.2057 79.6143 20.0508C79.4365 19.8958 79.3317 19.8092 79.2998 19.791C79.2542 19.7637 79.2018 19.75 79.1426 19.75C79.0104 19.75 78.8851 19.8001 78.7666 19.9004C78.5798 20.0553 78.4385 20.2764 78.3428 20.5635C78.1969 21.0055 78.124 21.4932 78.124 22.0264V23.4961L78.1309 23.8789C78.1309 24.1387 78.1468 24.305 78.1787 24.3779C78.2334 24.501 78.3132 24.5921 78.418 24.6514C78.5273 24.7061 78.7096 24.7402 78.9648 24.7539V25H75.5127V24.7539C75.7907 24.7311 75.9775 24.6559 76.0732 24.5283C76.1735 24.3962 76.2236 24.0521 76.2236 23.4961V19.9619C76.2236 19.5973 76.2054 19.3649 76.1689 19.2646C76.1234 19.137 76.0573 19.0436 75.9707 18.9844C75.8841 18.9251 75.7314 18.8841 75.5127 18.8613V18.6084H78.124ZM84.29 15.7305V21.8281L85.7734 20.3721C86.0788 20.0758 86.2679 19.8617 86.3408 19.7295C86.4183 19.5973 86.457 19.4697 86.457 19.3467C86.457 19.2236 86.4069 19.1211 86.3066 19.0391C86.2064 18.957 86.0104 18.8978 85.7188 18.8613V18.6084H88.583V18.8613C88.3096 18.875 88.0703 18.9411 87.8652 19.0596C87.6602 19.1735 87.2591 19.5221 86.6621 20.1055L85.9648 20.7891L87.4688 22.9902C88.0749 23.8835 88.4349 24.3848 88.5488 24.4941C88.7038 24.6491 88.8997 24.7357 89.1367 24.7539V25H85.835V24.7539C85.9808 24.7539 86.0856 24.7266 86.1494 24.6719C86.2178 24.6172 86.252 24.5579 86.252 24.4941C86.252 24.3893 86.1562 24.1956 85.9648 23.9131L84.7002 22.0605L84.29 22.4639V23.6123C84.29 24.0999 84.3356 24.4053 84.4268 24.5283C84.5179 24.6468 84.7048 24.722 84.9873 24.7539V25H81.6855V24.7539C81.9544 24.7266 82.1458 24.64 82.2598 24.4941C82.3372 24.3939 82.376 24.0999 82.376 23.6123V17.1182C82.376 16.6351 82.3304 16.3343 82.2393 16.2158C82.1527 16.0973 81.9681 16.0199 81.6855 15.9834V15.7305H84.29Z" fill="#131313"/>
<mask id="mask0_725_945" style="mask-type:alpha" maskUnits="userSpaceOnUse" x="31" y="0" width="47" height="30">
<path d="M31 0H78V8V16H66.5L59.5 30L32 28L31 0Z" fill="#D9D9D9"/>
</mask>
<g mask="url(#mask0_725_945)">
<path d="M56.8281 29.7207L65.8125 7.89453H79.2891V8.79785H78.2148C77.2383 8.79785 76.457 8.96875 75.8711 9.31055C75.4642 9.53841 75.1387 9.9209 74.8945 10.458C74.7155 10.8486 74.626 11.8659 74.626 13.5098V35.3359C74.626 37.0286 74.7155 38.0866 74.8945 38.5098C75.0736 38.9329 75.4398 39.3073 75.9932 39.6328C76.5465 39.9421 77.2871 40.0967 78.2148 40.0967H79.2891V41H62.0039V40.0967H63.0781C64.0547 40.0967 64.8359 39.9258 65.4219 39.584C65.8288 39.3561 66.1543 38.9655 66.3984 38.4121C66.5775 38.0215 66.667 36.9961 66.667 35.3359V10.7998L53.9717 41H53.3857L40.4951 11.0195V34.335C40.4951 35.9626 40.5358 36.9635 40.6172 37.3379C40.8288 38.1517 41.2845 38.819 41.9844 39.3398C42.7005 39.8444 43.8154 40.0967 45.3291 40.0967V41H34.001V40.0967H34.3428C35.0752 40.113 35.7588 39.999 36.3936 39.7549C37.0283 39.4945 37.5085 39.1527 37.834 38.7295C38.1595 38.3063 38.4118 37.7122 38.5908 36.9473C38.6234 36.7682 38.6396 35.9382 38.6396 34.457V13.5098C38.6396 11.8333 38.5501 10.7917 38.3711 10.3848C38.1921 9.96159 37.8258 9.59538 37.2725 9.28613C36.7191 8.96061 35.9785 8.79785 35.0508 8.79785H34.001V7.89453H47.5264L56.8281 29.7207Z" fill="#FDC500"/>
</g>
<mask id="mask1_725_945" style="mask-type:alpha" maskUnits="userSpaceOnUse" x="31" y="27" width="47" height="16">
<rect x="31" y="27" width="47" height="16" fill="#D9D9D9"/>
</mask>
<g mask="url(#mask1_725_945)">
<path d="M56.8281 29.7207L65.8125 7.89453H79.2891V8.79785H78.2148C77.2383 8.79785 76.457 8.96875 75.8711 9.31055C75.4642 9.53841 75.1387 9.9209 74.8945 10.458C74.7155 10.8486 74.626 11.8659 74.626 13.5098V35.3359C74.626 37.0286 74.7155 38.0866 74.8945 38.5098C75.0736 38.9329 75.4398 39.3073 75.9932 39.6328C76.5465 39.9421 77.2871 40.0967 78.2148 40.0967H79.2891V41H62.0039V40.0967H63.0781C64.0547 40.0967 64.8359 39.9258 65.4219 39.584C65.8288 39.3561 66.1543 38.9655 66.3984 38.4121C66.5775 38.0215 66.667 36.9961 66.667 35.3359V10.7998L53.9717 41H53.3857L40.4951 11.0195V34.335C40.4951 35.9626 40.5358 36.9635 40.6172 37.3379C40.8288 38.1517 41.2845 38.819 41.9844 39.3398C42.7005 39.8444 43.8154 40.0967 45.3291 40.0967V41H34.001V40.0967H34.3428C35.0752 40.113 35.7588 39.999 36.3936 39.7549C37.0283 39.4945 37.5085 39.1527 37.834 38.7295C38.1595 38.3063 38.4118 37.7122 38.5908 36.9473C38.6234 36.7682 38.6396 35.9382 38.6396 34.457V13.5098C38.6396 11.8333 38.5501 10.7917 38.3711 10.3848C38.1921 9.96159 37.8258 9.59538 37.2725 9.28613C36.7191 8.96061 35.9785 8.79785 35.0508 8.79785H34.001V7.89453H47.5264L56.8281 29.7207Z" fill="#FDC500"/>
</g>
</svg>