<svg width="126" height="67" viewBox="0 0 126 67" fill="none" xmlns="http://www.w3.org/2000/svg">
<path d="M3.822 62.392C3.29933 62.392 2.84667 62.2707 2.464 62.028C2.08133 61.7947 1.78733 61.4913 1.582 61.118C1.37667 60.7353 1.274 60.3433 1.274 59.942C1.274 59.27 1.37667 58.6493 1.582 58.08C1.78733 57.5013 2.058 56.9787 2.394 56.512C2.73 56.036 3.094 55.616 3.486 55.252C3.88733 54.888 4.27467 54.5847 4.648 54.342C5.03067 54.09 5.37133 53.9033 5.67 53.782C5.96867 53.6513 6.188 53.586 6.328 53.586C6.58 53.586 6.75733 53.642 6.86 53.754C6.972 53.8567 7.028 54.0293 7.028 54.272C7.028 54.412 6.92533 54.58 6.72 54.776C6.524 54.972 6.26267 55.196 5.936 55.448C5.61867 55.7 5.28267 55.9847 4.928 56.302C4.57333 56.6193 4.23267 56.974 3.906 57.366C3.58867 57.758 3.32733 58.1873 3.122 58.654C2.926 59.1207 2.828 59.6293 2.828 60.18C2.828 60.3853 2.86533 60.544 2.94 60.656C3.024 60.768 3.15933 60.824 3.346 60.824C3.878 60.824 4.44733 60.7307 5.054 60.544C5.67 60.348 6.28133 60.1053 6.888 59.816C7.504 59.5173 8.08267 59.2093 8.624 58.892C9.17467 58.5747 9.646 58.29 10.038 58.038C10.1967 57.926 10.332 57.8373 10.444 57.772C10.556 57.7067 10.6353 57.674 10.682 57.674C10.962 57.674 11.102 57.8187 11.102 58.108C11.102 58.2573 10.99 58.458 10.766 58.71C10.5047 59.0367 10.15 59.3727 9.702 59.718C9.26333 60.0633 8.77333 60.3947 8.232 60.712C7.7 61.0293 7.154 61.314 6.594 61.566C6.04333 61.818 5.52533 62.0187 5.04 62.168C4.55467 62.3173 4.14867 62.392 3.822 62.392ZM10.5611 62.616C10.3278 62.616 10.1271 62.532 9.95914 62.364C9.80047 62.196 9.72114 61.9533 9.72114 61.636C9.72114 61.496 9.73981 61.2673 9.77714 60.95C9.82381 60.6233 9.87981 60.25 9.94514 59.83C10.0198 59.41 10.0898 58.9713 10.1551 58.514C10.2298 58.0567 10.2905 57.6227 10.3371 57.212C10.3931 56.8013 10.4305 56.4513 10.4491 56.162C10.4678 55.8073 10.5611 55.5553 10.7291 55.406C10.8971 55.2473 11.0978 55.168 11.3311 55.168C11.5178 55.168 11.6858 55.2147 11.8351 55.308C11.9938 55.392 12.0918 55.574 12.1291 55.854C12.1758 56.1247 12.1805 56.5167 12.1431 57.03C12.5538 56.2833 12.9691 55.616 13.3891 55.028C13.8185 54.44 14.2665 53.9733 14.7331 53.628C15.5078 53.04 16.2078 52.746 16.8331 52.746C17.1878 52.746 17.4211 52.8253 17.5331 52.984C17.6451 53.1427 17.7011 53.306 17.7011 53.474C17.7011 53.586 17.6731 53.6887 17.6171 53.782C17.5705 53.8753 17.4678 53.9733 17.3091 54.076C17.1505 54.1787 16.9078 54.314 16.5811 54.482C16.1425 54.706 15.7085 55 15.2791 55.364C14.8591 55.728 14.4391 56.1947 14.0191 56.764C13.5991 57.3333 13.1745 58.0333 12.7451 58.864C12.3158 59.6947 11.8725 60.684 11.4151 61.832C11.3311 62.1493 11.2098 62.3593 11.0511 62.462C10.9018 62.5647 10.7385 62.616 10.5611 62.616ZM18.7806 62.476C18.2019 62.476 17.7352 62.2753 17.3806 61.874C17.0259 61.4633 16.8486 60.8053 16.8486 59.9C16.8486 59.3213 16.9139 58.7427 17.0446 58.164C17.1846 57.576 17.3759 57.0207 17.6186 56.498C17.8706 55.966 18.1599 55.4947 18.4866 55.084C18.8226 54.6733 19.1912 54.3513 19.5926 54.118C19.9939 53.8753 20.4092 53.754 20.8386 53.754C21.5666 53.754 22.1359 53.95 22.5466 54.342C22.9572 54.734 23.1626 55.2333 23.1626 55.84C23.1626 56.3067 23.0319 56.7313 22.7706 57.114C22.5186 57.4873 22.1732 57.8233 21.7346 58.122C21.2959 58.4207 20.8059 58.6913 20.2646 58.934C19.7232 59.1767 19.1679 59.396 18.5986 59.592C18.5519 59.928 18.5286 60.2267 18.5286 60.488C18.5286 60.6467 18.6172 60.726 18.7946 60.726C19.2146 60.726 19.6626 60.6607 20.1386 60.53C20.6239 60.39 21.1139 60.2127 21.6086 59.998C22.1032 59.774 22.5792 59.5453 23.0366 59.312C23.4939 59.0693 23.9092 58.8407 24.2826 58.626C24.6652 58.402 24.9779 58.2247 25.2206 58.094C25.4726 57.954 25.6359 57.884 25.7106 57.884C25.9159 57.884 26.0652 57.9447 26.1586 58.066C26.2519 58.1873 26.2986 58.318 26.2986 58.458C26.2986 58.5233 26.1726 58.668 25.9206 58.892C25.6779 59.116 25.3419 59.382 24.9126 59.69C24.4926 59.9887 24.0166 60.3013 23.4846 60.628C22.9619 60.9453 22.4159 61.2487 21.8466 61.538C21.2866 61.818 20.7406 62.042 20.2086 62.21C19.6859 62.3873 19.2099 62.476 18.7806 62.476ZM18.8366 58.346C19.2192 58.122 19.5972 57.8887 19.9706 57.646C20.3532 57.394 20.6706 57.114 20.9226 56.806C21.1746 56.4887 21.3006 56.12 21.3006 55.7C21.3006 55.5787 21.2679 55.4993 21.2026 55.462C21.1372 55.4153 21.0439 55.392 20.9226 55.392C20.5959 55.392 20.2972 55.5367 20.0266 55.826C19.7652 56.1153 19.5319 56.4887 19.3266 56.946C19.1306 57.394 18.9672 57.8607 18.8366 58.346ZM26.1388 62.532C25.8401 62.532 25.5694 62.448 25.3268 62.28C25.0841 62.1213 24.8928 61.9113 24.7528 61.65C24.6128 61.3793 24.5428 61.09 24.5428 60.782C24.5428 60.2033 24.6688 59.6387 24.9208 59.088C25.1821 58.5373 25.5228 58.0147 25.9428 57.52C26.3628 57.0253 26.8201 56.5727 27.3148 56.162C27.8188 55.742 28.3181 55.3827 28.8128 55.084C29.3168 54.7853 29.7741 54.552 30.1848 54.384C30.6048 54.216 30.9314 54.132 31.1648 54.132C31.4354 54.132 31.6548 54.1927 31.8228 54.314C32.0001 54.426 32.0888 54.6033 32.0888 54.846C32.0888 54.9207 32.0701 54.9813 32.0328 55.028C32.1541 55.056 32.2521 55.126 32.3268 55.238C32.4014 55.35 32.4388 55.518 32.4388 55.742C32.4388 55.8353 32.4154 56.078 32.3688 56.47C32.3221 56.862 32.2708 57.338 32.2148 57.898C32.1681 58.458 32.1448 59.0413 32.1448 59.648C32.1448 59.7413 32.1588 59.8253 32.1868 59.9C32.2148 59.9653 32.2754 59.998 32.3688 59.998C32.7421 59.998 33.1201 59.9233 33.5028 59.774C33.8948 59.6153 34.2728 59.424 34.6368 59.2C35.0101 58.9667 35.3461 58.738 35.6448 58.514C35.9528 58.2807 36.2094 58.0893 36.4148 57.94C36.6294 57.7813 36.7694 57.702 36.8348 57.702C37.1521 57.702 37.3108 57.8607 37.3108 58.178C37.3108 58.262 37.2081 58.4393 37.0028 58.71C36.8068 58.9713 36.5361 59.2747 36.1908 59.62C35.8454 59.956 35.4581 60.292 35.0288 60.628C34.6088 60.9547 34.1701 61.2253 33.7128 61.44C33.2648 61.6547 32.8308 61.762 32.4108 61.762C31.8974 61.762 31.5054 61.6407 31.2348 61.398C30.9734 61.1553 30.7868 60.8287 30.6748 60.418C30.5721 59.998 30.5161 59.5267 30.5068 59.004C30.0308 59.6853 29.5361 60.292 29.0228 60.824C28.5188 61.3467 28.0194 61.762 27.5248 62.07C27.0301 62.378 26.5681 62.532 26.1388 62.532ZM31.0948 55.518C30.1801 55.9567 29.3588 56.4607 28.6308 57.03C27.9028 57.59 27.3241 58.178 26.8948 58.794C26.4748 59.41 26.2648 60.0027 26.2648 60.572C26.2648 60.7307 26.3394 60.81 26.4888 60.81C26.6661 60.81 26.8994 60.7073 27.1888 60.502C27.4874 60.2967 27.8094 60.026 28.1548 59.69C28.5001 59.3447 28.8454 58.962 29.1908 58.542C29.5361 58.1127 29.8581 57.674 30.1568 57.226C30.4554 56.778 30.6934 56.3487 30.8708 55.938C30.9361 55.7887 31.0108 55.6487 31.0948 55.518ZM46.2139 54.944C46.2139 55.056 46.1766 55.154 46.1019 55.238C46.0272 55.322 45.9339 55.3873 45.8219 55.434C45.6632 55.4993 45.3879 55.5833 44.9959 55.686C44.6039 55.7887 44.1279 55.9053 43.5679 56.036C43.0172 56.1667 42.4246 56.302 41.7899 56.442C41.1552 56.5727 40.5206 56.6987 39.8859 56.82C39.6432 57.716 39.3959 58.64 39.1439 59.592C38.8919 60.5347 38.6399 61.4633 38.3879 62.378C38.2946 62.7047 38.1826 62.952 38.0519 63.12C37.9212 63.2973 37.6972 63.386 37.3799 63.386C37.0346 63.386 36.8012 63.274 36.6799 63.05C36.5679 62.8353 36.5539 62.5413 36.6379 62.168C36.8806 61.1507 37.1046 60.2033 37.3099 59.326C37.5246 58.4487 37.6972 57.7393 37.8279 57.198C37.2679 57.2913 36.7779 57.366 36.3579 57.422C35.9379 57.4687 35.6392 57.4873 35.4619 57.478C35.2659 57.4593 35.1026 57.38 34.9719 57.24C34.8412 57.1 34.7806 56.9273 34.7899 56.722C34.8086 56.5353 34.8926 56.3767 35.0419 56.246C35.1912 56.106 35.3686 56.022 35.5739 55.994C35.8632 55.966 36.2366 55.924 36.6939 55.868C37.1512 55.812 37.6552 55.7467 38.2059 55.672C38.3272 55.196 38.4672 54.706 38.6259 54.202C38.7846 53.6887 38.9479 53.1987 39.1159 52.732C39.2932 52.256 39.4612 51.8407 39.6199 51.486C39.7786 51.1313 39.9232 50.8747 40.0539 50.716C40.1566 50.5947 40.2826 50.5013 40.4319 50.436C40.5906 50.3707 40.7446 50.338 40.8939 50.338C41.0899 50.338 41.2486 50.408 41.3699 50.548C41.4912 50.688 41.5519 50.8513 41.5519 51.038C41.5519 51.1127 41.5472 51.192 41.5379 51.276C41.5286 51.3507 41.5099 51.4253 41.4819 51.5C41.3046 51.9667 41.1132 52.5313 40.9079 53.194C40.7119 53.8567 40.5066 54.5847 40.2919 55.378C40.9919 55.2753 41.6779 55.1727 42.3499 55.07C43.0312 54.958 43.6472 54.8553 44.1979 54.762C44.7579 54.6593 45.2059 54.5707 45.5419 54.496C45.7286 54.4307 45.8872 54.4447 46.0179 54.538C46.1486 54.622 46.2139 54.7573 46.2139 54.944ZM44.5273 61.21C44.266 61.21 44.0327 61.1213 43.8273 60.944C43.6313 60.7667 43.5333 60.4773 43.5333 60.076C43.5333 59.8613 43.5613 59.558 43.6173 59.166C43.6827 58.774 43.7667 58.3493 43.8693 57.892C43.972 57.4253 44.084 56.9633 44.2053 56.506C44.336 56.0487 44.462 55.6427 44.5833 55.288C44.7047 54.924 44.812 54.6533 44.9053 54.476C45.0267 54.2613 45.1387 54.1307 45.2413 54.084C45.3533 54.028 45.4607 54 45.5633 54C45.75 54 45.9227 54.056 46.0813 54.168C46.2493 54.28 46.3333 54.5273 46.3333 54.91C46.3333 55.0593 46.3053 55.302 46.2493 55.638C46.1933 55.9647 46.1233 56.3473 46.0393 56.786C45.9553 57.2247 45.862 57.6773 45.7593 58.144C45.666 58.6107 45.5727 59.054 45.4793 59.474C45.3953 59.8847 45.3253 60.23 45.2693 60.51C45.2227 60.7433 45.1247 60.916 44.9753 61.028C44.8353 61.1493 44.686 61.21 44.5273 61.21ZM46.1373 52.614C45.8293 52.614 45.5447 52.5253 45.2833 52.348C45.022 52.1613 44.8913 51.8767 44.8913 51.494C44.8913 51.1767 44.9707 50.92 45.1293 50.724C45.288 50.528 45.4747 50.388 45.6893 50.304C45.9133 50.2107 46.1093 50.164 46.2773 50.164C46.4453 50.164 46.632 50.2013 46.8373 50.276C47.0427 50.3413 47.22 50.4673 47.3693 50.654C47.528 50.8313 47.6073 51.088 47.6073 51.424C47.6073 51.648 47.528 51.8533 47.3693 52.04C47.2107 52.2173 47.0147 52.3573 46.7813 52.46C46.5573 52.5627 46.3427 52.614 46.1373 52.614ZM50.3316 61.986C50.089 61.986 49.8743 61.8693 49.6876 61.636C49.5103 61.4027 49.375 61.0433 49.2816 60.558C49.207 60.1473 49.1416 59.6807 49.0856 59.158C49.0296 58.6353 48.9783 58.122 48.9316 57.618C48.8943 57.1047 48.8663 56.6567 48.8476 56.274C48.829 55.8913 48.8196 55.63 48.8196 55.49C48.8196 54.986 48.9083 54.5707 49.0856 54.244C49.263 53.908 49.6036 53.74 50.1076 53.74C50.3223 53.74 50.4856 53.8333 50.5976 54.02C50.7096 54.1973 50.7656 54.4447 50.7656 54.762C50.7656 54.958 50.7656 55.2053 50.7656 55.504C50.775 55.7933 50.7843 56.12 50.7936 56.484C50.803 56.8853 50.8123 57.3193 50.8216 57.786C50.8403 58.2433 50.8496 58.7007 50.8496 59.158C51.1763 58.6447 51.5263 58.0987 51.8996 57.52C52.273 56.932 52.637 56.3627 52.9916 55.812C53.3556 55.2613 53.6823 54.776 53.9716 54.356C54.261 53.9267 54.4803 53.6233 54.6296 53.446C54.7603 53.2873 54.919 53.152 55.1056 53.04C55.2923 52.9187 55.4883 52.858 55.6936 52.858C55.9176 52.858 56.1043 52.9467 56.2536 53.124C56.403 53.3013 56.4776 53.5067 56.4776 53.74C56.4776 53.9173 56.4403 54.0853 56.3656 54.244C56.3003 54.4027 56.2163 54.552 56.1136 54.692C55.8336 55.084 55.5023 55.5413 55.1196 56.064C54.7463 56.5867 54.3543 57.1373 53.9436 57.716C53.533 58.2853 53.1316 58.836 52.7396 59.368C52.357 59.9 52.0163 60.3713 51.7176 60.782C51.475 61.1273 51.279 61.3887 51.1296 61.566C50.9803 61.734 50.845 61.846 50.7236 61.902C50.6116 61.958 50.481 61.986 50.3316 61.986ZM58.7024 62.476C58.1238 62.476 57.6571 62.2753 57.3024 61.874C56.9478 61.4633 56.7704 60.8053 56.7704 59.9C56.7704 59.3213 56.8358 58.7427 56.9664 58.164C57.1064 57.576 57.2978 57.0207 57.5404 56.498C57.7924 55.966 58.0818 55.4947 58.4084 55.084C58.7444 54.6733 59.1131 54.3513 59.5144 54.118C59.9158 53.8753 60.3311 53.754 60.7604 53.754C61.4884 53.754 62.0578 53.95 62.4684 54.342C62.8791 54.734 63.0844 55.2333 63.0844 55.84C63.0844 56.3067 62.9538 56.7313 62.6924 57.114C62.4404 57.4873 62.0951 57.8233 61.6564 58.122C61.2178 58.4207 60.7278 58.6913 60.1864 58.934C59.6451 59.1767 59.0898 59.396 58.5204 59.592C58.4738 59.928 58.4504 60.2267 58.4504 60.488C58.4504 60.6467 58.5391 60.726 58.7164 60.726C59.1364 60.726 59.5844 60.6607 60.0604 60.53C60.5458 60.39 61.0358 60.2127 61.5304 59.998C62.0251 59.774 62.5011 59.5453 62.9584 59.312C63.4158 59.0693 63.8311 58.8407 64.2044 58.626C64.5871 58.402 64.8998 58.2247 65.1424 58.094C65.3944 57.954 65.5578 57.884 65.6324 57.884C65.8378 57.884 65.9871 57.9447 66.0804 58.066C66.1738 58.1873 66.2204 58.318 66.2204 58.458C66.2204 58.5233 66.0944 58.668 65.8424 58.892C65.5998 59.116 65.2638 59.382 64.8344 59.69C64.4144 59.9887 63.9384 60.3013 63.4064 60.628C62.8838 60.9453 62.3378 61.2487 61.7684 61.538C61.2084 61.818 60.6624 62.042 60.1304 62.21C59.6078 62.3873 59.1318 62.476 58.7024 62.476ZM58.7584 58.346C59.1411 58.122 59.5191 57.8887 59.8924 57.646C60.2751 57.394 60.5924 57.114 60.8444 56.806C61.0964 56.4887 61.2224 56.12 61.2224 55.7C61.2224 55.5787 61.1898 55.4993 61.1244 55.462C61.0591 55.4153 60.9658 55.392 60.8444 55.392C60.5178 55.392 60.2191 55.5367 59.9484 55.826C59.6871 56.1153 59.4538 56.4887 59.2484 56.946C59.0524 57.394 58.8891 57.8607 58.7584 58.346ZM77.6172 54.51C78.1305 53.2873 78.5832 52.0273 78.9752 50.73C79.0499 50.4687 79.1572 50.268 79.2972 50.128C79.4465 49.988 79.6519 49.918 79.9132 49.918C80.1279 49.918 80.2912 49.9833 80.4032 50.114C80.5152 50.2353 80.5712 50.4033 80.5712 50.618C80.5712 50.7953 80.4965 51.1127 80.3472 51.57C80.1979 52.018 80.0159 52.5873 79.8012 53.278C79.5865 53.9687 79.3719 54.7667 79.1572 55.672C78.9425 56.5773 78.7605 57.5713 78.6112 58.654C78.4619 59.7367 78.3872 60.894 78.3872 62.126C78.3872 62.462 78.3219 62.7373 78.1912 62.952C78.0699 63.176 77.8552 63.288 77.5472 63.288C77.2112 63.288 76.9639 63.1713 76.8052 62.938C76.6559 62.7047 76.5812 62.406 76.5812 62.042C76.5812 61.3233 76.6045 60.726 76.6512 60.25C76.7072 59.7647 76.7632 59.3493 76.8192 59.004C76.3619 59.788 75.8765 60.4647 75.3632 61.034C74.8592 61.594 74.3739 62.0233 73.9072 62.322C73.4405 62.63 73.0392 62.784 72.7032 62.784C72.1525 62.784 71.7045 62.63 71.3592 62.322C71.0139 62.014 70.8412 61.5473 70.8412 60.922C70.8412 60.4367 70.9579 59.9373 71.1912 59.424C71.4245 58.9013 71.7325 58.388 72.1152 57.884C72.4979 57.38 72.9179 56.9087 73.3752 56.47C73.8419 56.022 74.3085 55.63 74.7752 55.294C75.2419 54.9487 75.6759 54.678 76.0772 54.482C76.4785 54.286 76.8052 54.188 77.0572 54.188C77.3372 54.188 77.5239 54.2953 77.6172 54.51ZM77.2952 55.266C77.2392 55.3033 77.1785 55.3407 77.1132 55.378C77.0572 55.406 77.0012 55.4387 76.9452 55.476C76.5905 55.7 76.2125 55.9707 75.8112 56.288C75.4099 56.596 75.0132 56.9413 74.6212 57.324C74.2292 57.6973 73.8699 58.0893 73.5432 58.5C73.2259 58.9013 72.9692 59.3027 72.7732 59.704C72.5865 60.096 72.4932 60.474 72.4932 60.838C72.4932 60.9033 72.5212 60.95 72.5772 60.978C72.6332 61.006 72.6845 61.02 72.7312 61.02C73.0579 61.02 73.4079 60.8753 73.7812 60.586C74.1639 60.2967 74.5512 59.8953 74.9432 59.382C75.3445 58.8593 75.7412 58.248 76.1332 57.548C76.5345 56.848 76.9219 56.0873 77.2952 55.266ZM83.2298 62.476C82.6511 62.476 82.1844 62.2753 81.8298 61.874C81.4751 61.4633 81.2978 60.8053 81.2978 59.9C81.2978 59.3213 81.3631 58.7427 81.4938 58.164C81.6338 57.576 81.8251 57.0207 82.0678 56.498C82.3198 55.966 82.6091 55.4947 82.9358 55.084C83.2718 54.6733 83.6404 54.3513 84.0418 54.118C84.4431 53.8753 84.8584 53.754 85.2878 53.754C86.0158 53.754 86.5851 53.95 86.9958 54.342C87.4064 54.734 87.6118 55.2333 87.6118 55.84C87.6118 56.3067 87.4811 56.7313 87.2198 57.114C86.9678 57.4873 86.6224 57.8233 86.1838 58.122C85.7451 58.4207 85.2551 58.6913 84.7138 58.934C84.1724 59.1767 83.6171 59.396 83.0478 59.592C83.0011 59.928 82.9778 60.2267 82.9778 60.488C82.9778 60.6467 83.0664 60.726 83.2438 60.726C83.6638 60.726 84.1118 60.6607 84.5878 60.53C85.0731 60.39 85.5631 60.2127 86.0578 59.998C86.5524 59.774 87.0284 59.5453 87.4858 59.312C87.9431 59.0693 88.3584 58.8407 88.7318 58.626C89.1144 58.402 89.4271 58.2247 89.6698 58.094C89.9218 57.954 90.0851 57.884 90.1598 57.884C90.3651 57.884 90.5144 57.9447 90.6078 58.066C90.7011 58.1873 90.7478 58.318 90.7478 58.458C90.7478 58.5233 90.6218 58.668 90.3698 58.892C90.1271 59.116 89.7911 59.382 89.3618 59.69C88.9418 59.9887 88.4658 60.3013 87.9338 60.628C87.4111 60.9453 86.8651 61.2487 86.2958 61.538C85.7358 61.818 85.1898 62.042 84.6578 62.21C84.1351 62.3873 83.6591 62.476 83.2298 62.476ZM83.2858 58.346C83.6684 58.122 84.0464 57.8887 84.4198 57.646C84.8024 57.394 85.1198 57.114 85.3718 56.806C85.6238 56.4887 85.7498 56.12 85.7498 55.7C85.7498 55.5787 85.7171 55.4993 85.6518 55.462C85.5864 55.4153 85.4931 55.392 85.3718 55.392C85.0451 55.392 84.7464 55.5367 84.4758 55.826C84.2144 56.1153 83.9811 56.4887 83.7758 56.946C83.5798 57.394 83.4164 57.8607 83.2858 58.346ZM91.2007 62.714C90.7994 62.714 90.5147 62.658 90.3467 62.546C90.188 62.434 90.1087 62.2707 90.1087 62.056C90.1087 61.8693 90.174 61.7107 90.3047 61.58C90.4354 61.44 90.7247 61.3 91.1727 61.16C91.6954 61.0013 92.19 60.8193 92.6567 60.614C93.1327 60.3993 93.52 60.166 93.8187 59.914C94.1267 59.662 94.2807 59.396 94.2807 59.116C94.2807 58.9293 94.2154 58.794 94.0847 58.71C93.9634 58.626 93.8187 58.584 93.6507 58.584C93.5107 58.584 93.3054 58.6073 93.0347 58.654C92.7734 58.6913 92.484 58.7427 92.1667 58.808C91.8494 58.864 91.5414 58.9153 91.2427 58.962C90.9534 58.9993 90.706 59.018 90.5007 59.018C90.0154 59.018 89.656 58.9107 89.4227 58.696C89.1894 58.472 89.0727 58.1873 89.0727 57.842C89.0727 57.6553 89.1707 57.3987 89.3667 57.072C89.5627 56.7453 89.824 56.386 90.1507 55.994C90.4774 55.602 90.8414 55.21 91.2427 54.818C91.644 54.426 92.05 54.0667 92.4607 53.74C92.8807 53.404 93.2774 53.138 93.6507 52.942C94.024 52.7367 94.3414 52.634 94.6027 52.634C94.9014 52.634 95.1394 52.7273 95.3167 52.914C95.5034 53.1007 95.5967 53.3527 95.5967 53.67C95.5967 53.8193 95.5827 53.9827 95.5547 54.16C95.5267 54.328 95.4567 54.482 95.3447 54.622C95.2327 54.7527 95.06 54.846 94.8267 54.902C94.5934 54.958 94.276 54.9487 93.8747 54.874C93.5574 55.1073 93.226 55.364 92.8807 55.644C92.5447 55.9147 92.2274 56.1993 91.9287 56.498C91.63 56.7873 91.3827 57.072 91.1867 57.352C91.532 57.24 91.924 57.1513 92.3627 57.086C92.8014 57.0113 93.2447 56.974 93.6927 56.974C94.234 56.974 94.6727 57.072 95.0087 57.268C95.354 57.4547 95.606 57.7067 95.7647 58.024C95.9327 58.3413 96.0167 58.6913 96.0167 59.074C96.0167 59.5033 95.8767 59.9327 95.5967 60.362C95.3167 60.7913 94.9434 61.1833 94.4767 61.538C94.01 61.8927 93.492 62.1773 92.9227 62.392C92.3534 62.6067 91.7794 62.714 91.2007 62.714ZM98.3262 62.21C98.0648 62.21 97.8315 62.1213 97.6262 61.944C97.4302 61.7667 97.3322 61.4773 97.3322 61.076C97.3322 60.8613 97.3602 60.558 97.4162 60.166C97.4815 59.774 97.5655 59.3493 97.6682 58.892C97.7708 58.4253 97.8828 57.9633 98.0042 57.506C98.1348 57.0487 98.2608 56.6427 98.3822 56.288C98.5035 55.924 98.6108 55.6533 98.7042 55.476C98.8255 55.2613 98.9375 55.1307 99.0402 55.084C99.1522 55.028 99.2595 55 99.3622 55C99.5488 55 99.7215 55.056 99.8802 55.168C100.048 55.28 100.132 55.5273 100.132 55.91C100.132 56.0593 100.104 56.302 100.048 56.638C99.9922 56.9647 99.9222 57.3473 99.8382 57.786C99.7542 58.2247 99.6608 58.6773 99.5582 59.144C99.4648 59.6107 99.3715 60.054 99.2782 60.474C99.1942 60.8847 99.1242 61.23 99.0682 61.51C99.0215 61.7433 98.9235 61.916 98.7742 62.028C98.6342 62.1493 98.4848 62.21 98.3262 62.21ZM99.9362 53.614C99.6282 53.614 99.3435 53.5253 99.0822 53.348C98.8208 53.1613 98.6902 52.8767 98.6902 52.494C98.6902 52.1767 98.7695 51.92 98.9282 51.724C99.0868 51.528 99.2735 51.388 99.4882 51.304C99.7122 51.2107 99.9082 51.164 100.076 51.164C100.244 51.164 100.431 51.2013 100.636 51.276C100.841 51.3413 101.019 51.4673 101.168 51.654C101.327 51.8313 101.406 52.088 101.406 52.424C101.406 52.648 101.327 52.8533 101.168 53.04C101.009 53.2173 100.813 53.3573 100.58 53.46C100.356 53.5627 100.141 53.614 99.9362 53.614ZM103.087 66.032C102.387 66.032 101.855 65.9807 101.491 65.878C101.137 65.7753 100.894 65.64 100.763 65.472C100.633 65.3133 100.567 65.15 100.567 64.982C100.567 64.7487 100.642 64.5573 100.791 64.408C100.95 64.2587 101.155 64.184 101.407 64.184C101.575 64.184 101.818 64.2073 102.135 64.254C102.453 64.3007 102.77 64.324 103.087 64.324C104.021 64.324 104.791 64.1 105.397 63.652C106.004 63.2133 106.48 62.546 106.825 61.65C107.171 60.7447 107.409 59.606 107.539 58.234C106.895 59.2887 106.181 60.1333 105.397 60.768C104.623 61.4027 103.815 61.72 102.975 61.72C101.986 61.72 101.491 61.2347 101.491 60.264C101.491 59.7973 101.617 59.3073 101.869 58.794C102.121 58.2807 102.457 57.772 102.877 57.268C103.297 56.764 103.759 56.288 104.263 55.84C104.767 55.3827 105.271 54.9813 105.775 54.636C106.289 54.2907 106.765 54.02 107.203 53.824C107.642 53.6187 107.997 53.516 108.267 53.516C108.482 53.516 108.669 53.5533 108.827 53.628C108.995 53.7027 109.126 53.852 109.219 54.076C109.313 54.2907 109.359 54.608 109.359 55.028C109.359 56.1947 109.317 57.324 109.233 58.416C109.149 59.4987 108.986 60.502 108.743 61.426C108.501 62.35 108.146 63.1573 107.679 63.848C107.222 64.5387 106.62 65.0753 105.873 65.458C105.127 65.8407 104.198 66.032 103.087 66.032ZM103.283 59.984C103.283 60.0493 103.311 60.082 103.367 60.082C103.554 60.082 103.806 59.984 104.123 59.788C104.441 59.5827 104.781 59.312 105.145 58.976C105.519 58.6307 105.883 58.248 106.237 57.828C106.592 57.3987 106.905 56.9553 107.175 56.498C107.455 56.0407 107.656 55.5973 107.777 55.168C107.292 55.448 106.788 55.7747 106.265 56.148C105.752 56.512 105.267 56.904 104.809 57.324C104.361 57.744 103.993 58.1827 103.703 58.64C103.423 59.088 103.283 59.536 103.283 59.984ZM113.107 62C112.883 62 112.659 61.9253 112.435 61.776C112.22 61.6173 112.043 61.3933 111.903 61.104C111.763 60.8053 111.693 60.446 111.693 60.026C111.693 59.466 111.767 58.8687 111.917 58.234C112.075 57.5993 112.267 56.9647 112.491 56.33C112.715 55.6953 112.934 55.098 113.149 54.538C113.251 54.2673 113.377 54.0853 113.527 53.992C113.676 53.8893 113.872 53.838 114.115 53.838C114.665 53.838 114.941 54.1133 114.941 54.664C114.941 54.7573 114.899 54.9393 114.815 55.21C114.731 55.4713 114.619 55.7933 114.479 56.176C114.348 56.5587 114.208 56.974 114.059 57.422C113.919 57.8607 113.788 58.3087 113.667 58.766C113.555 59.214 113.466 59.6387 113.401 60.04C113.615 59.7133 113.853 59.3073 114.115 58.822C114.385 58.3273 114.67 57.8093 114.969 57.268C115.277 56.7267 115.585 56.2227 115.893 55.756C116.201 55.28 116.504 54.8927 116.803 54.594C117.101 54.2953 117.386 54.146 117.657 54.146C117.89 54.146 118.109 54.1927 118.315 54.286C118.529 54.37 118.716 54.538 118.875 54.79C119.033 55.0327 119.155 55.3827 119.239 55.84C119.332 56.2973 119.379 56.8993 119.379 57.646C119.379 58.0193 119.411 58.3833 119.477 58.738C119.551 59.0833 119.673 59.3727 119.841 59.606C120.009 59.83 120.247 59.942 120.555 59.942C121.087 59.942 121.563 59.844 121.983 59.648C122.403 59.452 122.771 59.2233 123.089 58.962C123.406 58.7007 123.672 58.472 123.887 58.276C124.017 58.1453 124.129 58.0427 124.223 57.968C124.325 57.8933 124.409 57.856 124.475 57.856C124.671 57.856 124.811 57.9073 124.895 58.01C124.988 58.1127 125.035 58.2527 125.035 58.43C125.035 58.5233 124.955 58.696 124.797 58.948C124.638 59.2 124.414 59.4893 124.125 59.816C123.845 60.1333 123.523 60.4413 123.159 60.74C122.795 61.0387 122.403 61.286 121.983 61.482C121.563 61.678 121.133 61.776 120.695 61.776C119.957 61.776 119.346 61.6453 118.861 61.384C118.385 61.1133 118.03 60.6653 117.797 60.04C117.563 59.4053 117.447 58.542 117.447 57.45C117.447 57.422 117.447 57.3753 117.447 57.31C117.447 57.0207 117.442 56.764 117.433 56.54C117.433 56.316 117.419 56.134 117.391 55.994C117.232 56.2833 117.041 56.6287 116.817 57.03C116.602 57.4313 116.369 57.8607 116.117 58.318C115.865 58.766 115.603 59.2093 115.333 59.648C115.062 60.0773 114.791 60.4693 114.521 60.824C114.259 61.1787 114.007 61.4633 113.765 61.678C113.522 61.8927 113.303 62 113.107 62Z" fill="#F8F8F8"/>
<path d="M71.999 24.0566C71.2197 24.7448 70.5202 25.0889 69.9004 25.0889C69.5358 25.0889 69.2327 24.9704 68.9912 24.7334C68.7497 24.4919 68.6289 24.1911 68.6289 23.8311C68.6289 23.3434 68.8385 22.9059 69.2578 22.5186C69.6771 22.1266 70.5908 21.6071 71.999 20.96V20.3174C71.999 19.8343 71.9717 19.5312 71.917 19.4082C71.8669 19.2806 71.7689 19.1712 71.623 19.0801C71.4772 18.9844 71.3132 18.9365 71.1309 18.9365C70.8346 18.9365 70.5908 19.0026 70.3994 19.1348C70.2809 19.2168 70.2217 19.3125 70.2217 19.4219C70.2217 19.5176 70.2855 19.6361 70.4131 19.7773C70.5863 19.9733 70.6729 20.1624 70.6729 20.3447C70.6729 20.568 70.5885 20.7594 70.4199 20.9189C70.2559 21.0739 70.0394 21.1514 69.7705 21.1514C69.4834 21.1514 69.2419 21.0648 69.0459 20.8916C68.8545 20.7184 68.7588 20.5156 68.7588 20.2832C68.7588 19.9551 68.8887 19.6429 69.1484 19.3467C69.4082 19.0459 69.7705 18.8158 70.2354 18.6562C70.7002 18.4967 71.1833 18.417 71.6846 18.417C72.2907 18.417 72.7692 18.5469 73.1201 18.8066C73.4756 19.0618 73.7057 19.3398 73.8105 19.6406C73.8743 19.832 73.9062 20.2718 73.9062 20.96V23.4414C73.9062 23.7331 73.9176 23.9176 73.9404 23.9951C73.9632 24.068 73.9974 24.1227 74.043 24.1592C74.0885 24.1956 74.141 24.2139 74.2002 24.2139C74.3187 24.2139 74.4395 24.1296 74.5625 23.9609L74.7676 24.125C74.5397 24.4622 74.3027 24.7083 74.0566 24.8633C73.8151 25.0137 73.5394 25.0889 73.2295 25.0889C72.8649 25.0889 72.5801 25.0046 72.375 24.8359C72.1699 24.6628 72.0446 24.403 71.999 24.0566ZM71.999 23.5576V21.418C71.4476 21.7415 71.0374 22.0879 70.7686 22.457C70.5908 22.7031 70.502 22.9515 70.502 23.2021C70.502 23.4118 70.5771 23.5964 70.7275 23.7559C70.8415 23.8789 71.001 23.9404 71.2061 23.9404C71.4339 23.9404 71.6982 23.8128 71.999 23.5576ZM78.124 18.6084V20.0576C78.5479 19.3968 78.9193 18.9593 79.2383 18.7451C79.5573 18.5264 79.8649 18.417 80.1611 18.417C80.4163 18.417 80.6191 18.4967 80.7695 18.6562C80.9245 18.8112 81.002 19.0322 81.002 19.3193C81.002 19.6247 80.9268 19.8617 80.7764 20.0303C80.6305 20.1989 80.4528 20.2832 80.2432 20.2832C80.0016 20.2832 79.792 20.2057 79.6143 20.0508C79.4365 19.8958 79.3317 19.8092 79.2998 19.791C79.2542 19.7637 79.2018 19.75 79.1426 19.75C79.0104 19.75 78.8851 19.8001 78.7666 19.9004C78.5798 20.0553 78.4385 20.2764 78.3428 20.5635C78.1969 21.0055 78.124 21.4932 78.124 22.0264V23.4961L78.1309 23.8789C78.1309 24.1387 78.1468 24.305 78.1787 24.3779C78.2334 24.501 78.3132 24.5921 78.418 24.6514C78.5273 24.7061 78.7096 24.7402 78.9648 24.7539V25H75.5127V24.7539C75.7907 24.7311 75.9775 24.6559 76.0732 24.5283C76.1735 24.3962 76.2236 24.0521 76.2236 23.4961V19.9619C76.2236 19.5973 76.2054 19.3649 76.1689 19.2646C76.1234 19.137 76.0573 19.0436 75.9707 18.9844C75.8841 18.9251 75.7314 18.8841 75.5127 18.8613V18.6084H78.124ZM84.29 15.7305V21.8281L85.7734 20.3721C86.0788 20.0758 86.2679 19.8617 86.3408 19.7295C86.4183 19.5973 86.457 19.4697 86.457 19.3467C86.457 19.2236 86.4069 19.1211 86.3066 19.0391C86.2064 18.957 86.0104 18.8978 85.7188 18.8613V18.6084H88.583V18.8613C88.3096 18.875 88.0703 18.9411 87.8652 19.0596C87.6602 19.1735 87.2591 19.5221 86.6621 20.1055L85.9648 20.7891L87.4688 22.9902C88.0749 23.8835 88.4349 24.3848 88.5488 24.4941C88.7038 24.6491 88.8997 24.7357 89.1367 24.7539V25H85.835V24.7539C85.9808 24.7539 86.0856 24.7266 86.1494 24.6719C86.2178 24.6172 86.252 24.5579 86.252 24.4941C86.252 24.3893 86.1562 24.1956 85.9648 23.9131L84.7002 22.0605L84.29 22.4639V23.6123C84.29 24.0999 84.3356 24.4053 84.4268 24.5283C84.5179 24.6468 84.7048 24.722 84.9873 24.7539V25H81.6855V24.7539C81.9544 24.7266 82.1458 24.64 82.2598 24.4941C82.3372 24.3939 82.376 24.0999 82.376 23.6123V17.1182C82.376 16.6351 82.3304 16.3343 82.2393 16.2158C82.1527 16.0973 81.9681 16.0199 81.6855 15.9834V15.7305H84.29Z" fill="#F8F8F8"/>
<mask id="mask0_725_945" style="mask-type:alpha" maskUnits="userSpaceOnUse" x="31" y="0" width="47" height="30">
<path d="M31 0H78V8V16H66.5L59.5 30L32 28L31 0Z" fill="#D9D9D9"/>
</mask>
<g mask="url(#mask0_725_945)">
<path d="M56.8281 29.7207L65.8125 7.89453H79.2891V8.79785H78.2148C77.2383 8.79785 76.457 8.96875 75.8711 9.31055C75.4642 9.53841 75.1387 9.9209 74.8945 10.458C74.7155 10.8486 74.626 11.8659 74.626 13.5098V35.3359C74.626 37.0286 74.7155 38.0866 74.8945 38.5098C75.0736 38.9329 75.4398 39.3073 75.9932 39.6328C76.5465 39.9421 77.2871 40.0967 78.2148 40.0967H79.2891V41H62.0039V40.0967H63.0781C64.0547 40.0967 64.8359 39.9258 65.4219 39.584C65.8288 39.3561 66.1543 38.9655 66.3984 38.4121C66.5775 38.0215 66.667 36.9961 66.667 35.3359V10.7998L53.9717 41H53.3857L40.4951 11.0195V34.335C40.4951 35.9626 40.5358 36.9635 40.6172 37.3379C40.8288 38.1517 41.2845 38.819 41.9844 39.3398C42.7005 39.8444 43.8154 40.0967 45.3291 40.0967V41H34.001V40.0967H34.3428C35.0752 40.113 35.7588 39.999 36.3936 39.7549C37.0283 39.4945 37.5085 39.1527 37.834 38.7295C38.1595 38.3063 38.4118 37.7122 38.5908 36.9473C38.6234 36.7682 38.6396 35.9382 38.6396 34.457V13.5098C38.6396 11.8333 38.5501 10.7917 38.3711 10.3848C38.1921 9.96159 37.8258 9.59538 37.2725 9.28613C36.7191 8.96061 35.9785 8.79785 35.0508 8.79785H34.001V7.89453H47.5264L56.8281 29.7207Z" fill="#FDC500"/>
</g>
<mask id="mask1_725_945" style="mask-type:alpha" maskUnits="userSpaceOnUse" x="31" y="27" width="47" height="16">
<rect x="31" y="27" width="47" height="16" fill="#D9D9D9"/>
</mask>
<g mask="url(#mask1_725_945)">
<path d="M56.8281 29.7207L65.8125 7.89453H79.2891V8.79785H78.2148C77.2383 8.79785 76.457 8.96875 75.8711 9.31055C75.4642 9.53841 75.1387 9.9209 74.8945 10.458C74.7155 10.8486 74.626 11.8659 74.626 13.5098V35.3359C74.626 37.0286 74.7155 38.0866 74.8945 38.5098C75.0736 38.9329 75.4398 39.3073 75.9932 39.6328C76.5465 39.9421 77.2871 40.0967 78.2148 40.0967H79.2891V41H62.0039V40.0967H63.0781C64.0547 40.0967 64.8359 39.9258 65.4219 39.584C65.8288 39.3561 66.1543 38.9655 66.3984 38.4121C66.5775 38.0215 66.667 36.9961 66.667 35.3359V10.7998L53.9717 41H53.3857L40.4951 11.0195V34.335C40.4951 35.9626 40.5358 36.9635 40.6172 37.3379C40.8288 38.1517 41.2845 38.819 41.9844 39.3398C42.7005 39.8444 43.8154 40.0967 45.3291 40.0967V41H34.001V40.0967H34.3428C35.0752 40.113 35.7588 39.999 36.3936 39.7549C37.0283 39.4945 37.5085 39.1527 37.834 38.7295C38.1595 38.3063 38.4118 37.7122 38.5908 36.9473C38.6234 36.7682 38.6396 35.9382 38.6396 34.457V13.5098C38.6396 11.8333 38.5501 10.7917 38.3711 10.3848C38.1921 9.96159 37.8258 9.59538 37.2725 9.28613C36.7191 8.96061 35.9785 8.79785 35.0508 8.79785H34.001V7.89453H47.5264L56.8281 29.7207Z" fill="#FDC500"/>
</g>
</svg>
