<svg width="126" height="67" fill="none" xmlns="http://www.w3.org/2000/svg"><path d="M3.822 62.392c-.523 0-.975-.121-1.358-.364a2.423 2.423 0 0 1-.882-.91 2.46 2.46 0 0 1-.308-1.176c0-.672.103-1.293.308-1.862a6.233 6.233 0 0 1 .812-1.568 8.03 8.03 0 0 1 1.092-1.26 9.273 9.273 0 0 1 1.162-.91 6.064 6.064 0 0 1 1.022-.56c.299-.13.518-.196.658-.196.252 0 .43.056.532.168.112.103.168.275.168.518 0 .14-.103.308-.308.504-.196.196-.457.42-.784.672-.317.252-.653.537-1.008.854-.355.317-.695.672-1.022 1.064a5.66 5.66 0 0 0-.784 1.288 3.901 3.901 0 0 0-.294 1.526c0 .205.037.364.112.476.084.112.22.168.406.168a5.82 5.82 0 0 0 1.708-.28 14.41 14.41 0 0 0 1.834-.728 25.029 25.029 0 0 0 1.736-.924c.55-.317 1.022-.602 1.414-.854.159-.112.294-.2.406-.266.112-.065.191-.098.238-.098.28 0 .42.145.42.434 0 .15-.112.35-.336.602-.261.327-.616.663-1.064 1.008a13.01 13.01 0 0 1-1.47.994c-.532.317-1.078.602-1.638.854-.55.252-1.069.453-1.554.602-.485.15-.891.224-1.218.224Zm6.74.224a.822.822 0 0 1-.603-.252c-.159-.168-.238-.41-.238-.728 0-.14.019-.369.056-.686.047-.327.103-.7.168-1.12.075-.42.145-.859.21-1.316.075-.457.136-.891.182-1.302.056-.41.094-.76.112-1.05.019-.355.112-.607.28-.756a.846.846 0 0 1 .602-.238c.187 0 .355.047.504.14.159.084.257.266.294.546.047.27.052.663.014 1.176.41-.747.826-1.414 1.246-2.002.43-.588.878-1.055 1.344-1.4.775-.588 1.475-.882 2.1-.882.355 0 .588.08.7.238a.84.84 0 0 1 .168.49.587.587 0 0 1-.084.308c-.047.093-.15.191-.308.294a9.086 9.086 0 0 1-.728.406 6.824 6.824 0 0 0-1.302.882c-.42.364-.84.83-1.26 1.4-.42.57-.845 1.27-1.274 2.1-.43.83-.872 1.82-1.33 2.968-.084.317-.205.527-.364.63a.846.846 0 0 1-.49.154Zm8.219-.14c-.58 0-1.046-.2-1.4-.602-.355-.41-.532-1.069-.532-1.974 0-.579.065-1.157.196-1.736.14-.588.33-1.143.574-1.666a7.236 7.236 0 0 1 .868-1.414c.336-.41.704-.733 1.106-.966a2.376 2.376 0 0 1 1.246-.364c.728 0 1.297.196 1.708.588.41.392.616.891.616 1.498 0 .467-.131.891-.392 1.274-.252.373-.598.71-1.036 1.008-.44.299-.93.57-1.47.812-.542.243-1.097.462-1.666.658-.047.336-.07.635-.07.896 0 .159.088.238.266.238.42 0 .868-.065 1.344-.196.485-.14.975-.317 1.47-.532.494-.224.97-.453 1.428-.686a42.23 42.23 0 0 0 1.246-.686c.382-.224.695-.401.938-.532.252-.14.415-.21.49-.21.205 0 .354.06.448.182a.63.63 0 0 1 .14.392c0 .065-.126.21-.378.434-.243.224-.58.49-1.008.798-.42.299-.896.611-1.428.938a24.85 24.85 0 0 1-1.638.91c-.56.28-1.106.504-1.638.672-.523.177-1 .266-1.428.266Zm.056-4.13c.382-.224.76-.457 1.134-.7.382-.252.7-.532.952-.84.252-.317.378-.686.378-1.106 0-.121-.033-.2-.098-.238a.477.477 0 0 0-.28-.07c-.327 0-.626.145-.896.434-.262.29-.495.663-.7 1.12-.196.448-.36.915-.49 1.4Zm7.302 4.186c-.299 0-.57-.084-.812-.252a1.697 1.697 0 0 1-.574-.63c-.14-.27-.21-.56-.21-.868 0-.579.126-1.143.378-1.694a7.17 7.17 0 0 1 1.022-1.568c.42-.495.877-.947 1.372-1.358a12.21 12.21 0 0 1 1.498-1.078c.504-.299.961-.532 1.372-.7.42-.168.746-.252.98-.252.27 0 .49.06.658.182.177.112.266.29.266.532a.283.283 0 0 1-.056.182c.121.028.22.098.294.21.074.112.112.28.112.504 0 .093-.024.336-.07.728-.047.392-.098.868-.154 1.428a21.07 21.07 0 0 0-.07 1.75c0 .093.014.177.042.252.028.065.088.098.182.098.373 0 .751-.075 1.134-.224.392-.159.77-.35 1.134-.574.373-.233.71-.462 1.008-.686.308-.233.564-.425.77-.574.214-.159.354-.238.42-.238.317 0 .476.159.476.476 0 .084-.103.261-.308.532a8.86 8.86 0 0 1-.812.91c-.346.336-.733.672-1.162 1.008-.42.327-.859.597-1.316.812-.448.215-.882.322-1.302.322-.514 0-.906-.121-1.176-.364-.262-.243-.448-.57-.56-.98a6.45 6.45 0 0 1-.168-1.414c-.476.681-.97 1.288-1.484 1.82-.504.523-1.004.938-1.498 1.246-.495.308-.957.462-1.386.462Zm4.956-7.014c-.915.439-1.736.943-2.464 1.512-.728.56-1.307 1.148-1.736 1.764-.42.616-.63 1.209-.63 1.778 0 .159.074.238.224.238.177 0 .41-.103.7-.308.298-.205.62-.476.966-.812.345-.345.69-.728 1.036-1.148.345-.43.667-.868.966-1.316.298-.448.536-.877.714-1.288.065-.15.14-.29.224-.42Zm15.119-.574c0 .112-.037.21-.112.294a.759.759 0 0 1-.28.196c-.159.065-.434.15-.826.252a114.957 114.957 0 0 1-3.206.756c-.635.13-1.27.257-1.904.378-.243.896-.49 1.82-.742 2.772-.252.943-.504 1.871-.756 2.786-.093.327-.205.574-.336.742-.13.177-.355.266-.672.266-.345 0-.579-.112-.7-.336-.112-.215-.126-.509-.042-.882.243-1.017.467-1.965.672-2.842.215-.877.387-1.587.518-2.128-.56.093-1.05.168-1.47.224-.42.047-.719.065-.896.056a.744.744 0 0 1-.49-.238.682.682 0 0 1-.182-.518.71.71 0 0 1 .252-.476.946.946 0 0 1 .532-.252c.29-.028.663-.07 1.12-.126.457-.056.961-.121 1.512-.196.121-.476.261-.966.42-1.47.159-.513.322-1.003.49-1.47.177-.476.345-.891.504-1.246.159-.355.303-.611.434-.77.103-.121.229-.215.378-.28a1.21 1.21 0 0 1 .462-.098.6.6 0 0 1 .476.21c.121.14.182.303.182.49 0 .075-.005.154-.014.238a.983.983 0 0 1-.056.224 29.123 29.123 0 0 0-.574 1.694c-.196.663-.401 1.39-.616 2.184.7-.103 1.386-.205 2.058-.308.681-.112 1.297-.215 1.848-.308a38.46 38.46 0 0 0 1.344-.266c.187-.065.345-.051.476.042.13.084.196.22.196.406Zm-1.687 6.266c-.261 0-.494-.089-.7-.266-.196-.177-.294-.467-.294-.868 0-.215.028-.518.084-.91a33.416 33.416 0 0 1 .588-2.66c.131-.457.257-.863.378-1.218.122-.364.229-.635.322-.812.122-.215.234-.345.336-.392a.72.72 0 0 1 .322-.084.88.88 0 0 1 .518.168c.168.112.252.36.252.742 0 .15-.028.392-.084.728a61.103 61.103 0 0 1-.49 2.506c-.093.467-.186.91-.28 1.33l-.21 1.036c-.046.233-.144.406-.294.518a.674.674 0 0 1-.448.182Zm1.61-8.596a1.49 1.49 0 0 1-.854-.266c-.261-.187-.392-.471-.392-.854 0-.317.08-.574.238-.77.159-.196.346-.336.56-.42.224-.093.42-.14.588-.14.168 0 .355.037.56.112.206.065.383.191.532.378.159.177.238.434.238.77a.93.93 0 0 1-.238.616 1.69 1.69 0 0 1-.588.42 1.544 1.544 0 0 1-.644.154Zm4.195 9.372c-.243 0-.458-.117-.644-.35-.178-.233-.313-.593-.406-1.078-.075-.41-.14-.877-.196-1.4a107.99 107.99 0 0 1-.154-1.54 57.716 57.716 0 0 1-.084-1.344 19.553 19.553 0 0 1-.028-.784c0-.504.088-.92.266-1.246.177-.336.518-.504 1.022-.504.214 0 .378.093.49.28.112.177.168.425.168.742v.742a142.99 142.99 0 0 1 .056 2.282c.018.457.028.915.028 1.372.326-.513.676-1.06 1.05-1.638.373-.588.737-1.157 1.092-1.708.364-.55.69-1.036.98-1.456.289-.43.508-.733.658-.91.13-.159.289-.294.476-.406.186-.121.382-.182.588-.182.224 0 .41.089.56.266.149.177.224.383.224.616 0 .177-.038.345-.112.504-.066.159-.15.308-.252.448-.28.392-.612.85-.994 1.372-.374.523-.766 1.073-1.176 1.652-.411.57-.812 1.12-1.204 1.652-.383.532-.724 1.003-1.022 1.414-.243.345-.439.607-.588.784-.15.168-.285.28-.406.336a.866.866 0 0 1-.392.084Zm8.37.49c-.578 0-1.045-.2-1.4-.602-.354-.41-.532-1.069-.532-1.974 0-.579.066-1.157.196-1.736.14-.588.332-1.143.574-1.666a7.241 7.241 0 0 1 .868-1.414 4.1 4.1 0 0 1 1.106-.966 2.377 2.377 0 0 1 1.246-.364c.728 0 1.298.196 1.708.588.411.392.616.891.616 1.498 0 .467-.13.891-.392 1.274a3.82 3.82 0 0 1-1.036 1.008c-.438.299-.928.57-1.47.812-.54.243-1.096.462-1.666.658-.046.336-.07.635-.07.896 0 .159.09.238.266.238.42 0 .868-.065 1.344-.196.486-.14.976-.317 1.47-.532.495-.224.971-.453 1.428-.686.458-.243.873-.471 1.246-.686.383-.224.696-.401.938-.532.252-.14.416-.21.49-.21.206 0 .355.06.448.182a.63.63 0 0 1 .14.392c0 .065-.126.21-.378.434-.242.224-.578.49-1.008.798-.42.299-.896.611-1.428.938a24.8 24.8 0 0 1-1.638.91c-.56.28-1.106.504-1.638.672-.522.177-.998.266-1.428.266Zm.056-4.13c.383-.224.761-.457 1.134-.7.383-.252.7-.532.952-.84.252-.317.378-.686.378-1.106 0-.121-.032-.2-.098-.238a.477.477 0 0 0-.28-.07c-.326 0-.625.145-.896.434-.26.29-.494.663-.7 1.12a9.93 9.93 0 0 0-.49 1.4Zm18.86-3.836a38.607 38.607 0 0 0 1.357-3.78c.075-.261.182-.462.322-.602.15-.14.355-.21.616-.21.215 0 .378.065.49.196.112.121.168.29.168.504 0 .177-.075.495-.224.952-.15.448-.331 1.017-.546 1.708-.215.69-.43 1.489-.644 2.394-.215.905-.397 1.9-.546 2.982a25.448 25.448 0 0 0-.224 3.472c0 .336-.065.611-.196.826-.121.224-.336.336-.644.336-.336 0-.583-.117-.742-.35-.15-.233-.224-.532-.224-.896 0-.719.023-1.316.07-1.792.056-.485.112-.9.168-1.246-.457.784-.943 1.46-1.456 2.03-.504.56-.99.99-1.456 1.288-.466.308-.868.462-1.204.462-.55 0-.999-.154-1.344-.462-.345-.308-.518-.775-.518-1.4 0-.485.117-.985.35-1.498a7.827 7.827 0 0 1 .924-1.54 12.998 12.998 0 0 1 2.66-2.59c.467-.345.9-.616 1.302-.812.401-.196.728-.294.98-.294.28 0 .467.107.56.322Zm-.323.756a3.122 3.122 0 0 1-.182.112 1.57 1.57 0 0 0-.168.098c-.354.224-.732.495-1.134.812-.401.308-.798.653-1.19 1.036a11.57 11.57 0 0 0-1.078 1.176 6.674 6.674 0 0 0-.77 1.204c-.186.392-.28.77-.28 1.134 0 .065.028.112.084.14a.348.348 0 0 0 .154.042c.327 0 .677-.145 1.05-.434.383-.29.77-.69 1.162-1.204.401-.523.798-1.134 1.19-1.834.401-.7.789-1.46 1.162-2.282Zm5.935 7.21c-.579 0-1.046-.2-1.4-.602-.355-.41-.532-1.069-.532-1.974 0-.579.065-1.157.196-1.736.14-.588.331-1.143.574-1.666a7.236 7.236 0 0 1 .868-1.414c.336-.41.704-.733 1.106-.966a2.376 2.376 0 0 1 1.246-.364c.728 0 1.297.196 1.708.588.41.392.616.891.616 1.498 0 .467-.13.891-.392 1.274-.252.373-.598.71-1.036 1.008-.439.299-.929.57-1.47.812-.542.243-1.097.462-1.666.658-.047.336-.07.635-.07.896 0 .159.088.238.266.238.42 0 .868-.065 1.344-.196.485-.14.975-.317 1.47-.532.494-.224.97-.453 1.428-.686a42.23 42.23 0 0 0 1.246-.686c.382-.224.695-.401.938-.532.252-.14.415-.21.49-.21.205 0 .354.06.448.182a.63.63 0 0 1 .14.392c0 .065-.126.21-.378.434-.243.224-.579.49-1.008.798-.42.299-.896.611-1.428.938a24.85 24.85 0 0 1-1.638.91c-.56.28-1.106.504-1.638.672-.523.177-.999.266-1.428.266Zm.056-4.13c.382-.224.76-.457 1.134-.7.382-.252.7-.532.952-.84.252-.317.378-.686.378-1.106 0-.121-.033-.2-.098-.238a.477.477 0 0 0-.28-.07c-.327 0-.626.145-.896.434-.262.29-.495.663-.7 1.12-.196.448-.36.915-.49 1.4Zm7.915 4.368c-.402 0-.686-.056-.854-.168a.562.562 0 0 1-.238-.49c0-.187.065-.345.196-.476.13-.14.42-.28.868-.42.522-.159 1.017-.34 1.484-.546.476-.215.863-.448 1.162-.7.308-.252.462-.518.462-.798 0-.187-.066-.322-.196-.406a.743.743 0 0 0-.434-.126c-.14 0-.346.023-.616.07-.262.037-.551.089-.868.154-.318.056-.626.107-.924.154-.29.037-.537.056-.742.056-.486 0-.845-.107-1.078-.322a1.133 1.133 0 0 1-.35-.854c0-.187.098-.443.294-.77.196-.327.457-.686.784-1.078.326-.392.69-.784 1.092-1.176.401-.392.807-.751 1.218-1.078a7.57 7.57 0 0 1 1.19-.798c.373-.205.69-.308.952-.308.298 0 .536.093.714.28.186.187.28.439.28.756 0 .15-.014.313-.042.49a.991.991 0 0 1-.21.462c-.112.13-.285.224-.518.28-.234.056-.551.047-.952-.028-.318.233-.649.49-.994.77-.336.27-.654.555-.952.854-.299.29-.546.574-.742.854.345-.112.737-.2 1.176-.266a7.909 7.909 0 0 1 1.33-.112c.541 0 .98.098 1.316.294.345.187.597.439.756.756.168.317.252.667.252 1.05 0 .43-.14.859-.42 1.288a4.74 4.74 0 0 1-1.12 1.176c-.467.355-.985.64-1.554.854a4.847 4.847 0 0 1-1.722.322Zm7.125-.504c-.261 0-.494-.089-.7-.266-.196-.177-.294-.467-.294-.868 0-.215.028-.518.084-.91a33.099 33.099 0 0 1 .588-2.66c.13-.457.257-.863.378-1.218.121-.364.229-.635.322-.812.122-.215.234-.345.336-.392a.72.72 0 0 1 .322-.084.88.88 0 0 1 .518.168c.168.112.252.36.252.742 0 .15-.028.392-.084.728a59.362 59.362 0 0 1-.49 2.506c-.093.467-.187.91-.28 1.33l-.21 1.036c-.046.233-.144.406-.294.518a.674.674 0 0 1-.448.182Zm1.61-8.596a1.49 1.49 0 0 1-.854-.266c-.261-.187-.392-.471-.392-.854 0-.317.08-.574.238-.77.159-.196.346-.336.56-.42.224-.093.42-.14.588-.14.168 0 .355.037.56.112.205.065.383.191.532.378.159.177.238.434.238.77 0 .224-.079.43-.238.616a1.697 1.697 0 0 1-.588.42 1.545 1.545 0 0 1-.644.154Zm3.151 12.418c-.7 0-1.232-.051-1.596-.154-.354-.103-.597-.238-.728-.406a.778.778 0 0 1 .028-1.064.863.863 0 0 1 .616-.224c.168 0 .411.023.728.07.318.047.635.07.952.07.934 0 1.704-.224 2.31-.672.607-.439 1.083-1.106 1.428-2.002.346-.905.584-2.044.714-3.416-.644 1.055-1.358 1.9-2.142 2.534-.774.635-1.582.952-2.422.952-.989 0-1.484-.485-1.484-1.456 0-.467.126-.957.378-1.47a7.691 7.691 0 0 1 1.008-1.526c.42-.504.882-.98 1.386-1.428a14.219 14.219 0 0 1 1.512-1.204c.514-.345.99-.616 1.428-.812.439-.205.794-.308 1.064-.308a1.3 1.3 0 0 1 .56.112c.168.075.299.224.392.448.094.215.14.532.14.952 0 1.167-.042 2.296-.126 3.388a17.01 17.01 0 0 1-.49 3.01c-.242.924-.597 1.731-1.064 2.422a4.693 4.693 0 0 1-1.806 1.61c-.746.383-1.675.574-2.786.574Zm.196-6.048c0 .065.028.098.084.098.187 0 .439-.098.756-.294a7.683 7.683 0 0 0 1.022-.812c.374-.345.738-.728 1.092-1.148.355-.43.668-.873.938-1.33.28-.457.481-.9.602-1.33-.485.28-.989.607-1.512.98a14.96 14.96 0 0 0-1.456 1.176c-.448.42-.816.859-1.106 1.316-.28.448-.42.896-.42 1.344ZM113.107 62c-.224 0-.448-.075-.672-.224a1.773 1.773 0 0 1-.532-.672c-.14-.299-.21-.658-.21-1.078 0-.56.074-1.157.224-1.792.158-.635.35-1.27.574-1.904.224-.635.443-1.232.658-1.792.102-.27.228-.453.378-.546.149-.103.345-.154.588-.154.55 0 .826.275.826.826 0 .093-.042.275-.126.546a26.55 26.55 0 0 1-.336.966c-.131.383-.271.798-.42 1.246-.14.439-.271.887-.392 1.344-.112.448-.201.873-.266 1.274.214-.327.452-.733.714-1.218.27-.495.555-1.013.854-1.554.308-.541.616-1.045.924-1.512.308-.476.611-.863.91-1.162.298-.299.583-.448.854-.448.233 0 .452.047.658.14.214.084.401.252.56.504.158.243.28.593.364 1.05.093.457.14 1.06.14 1.806 0 .373.032.737.098 1.092.074.345.196.635.364.868.168.224.406.336.714.336.532 0 1.008-.098 1.428-.294.42-.196.788-.425 1.106-.686.317-.261.583-.49.798-.686.13-.13.242-.233.336-.308.102-.075.186-.112.252-.112.196 0 .336.051.42.154.093.103.14.243.14.42 0 .093-.08.266-.238.518a6.987 6.987 0 0 1-.672.868c-.28.317-.602.625-.966.924a5.543 5.543 0 0 1-1.176.742c-.42.196-.85.294-1.288.294-.738 0-1.349-.13-1.834-.392-.476-.27-.831-.719-1.064-1.344-.234-.635-.35-1.498-.35-2.59v-.14c0-.29-.005-.546-.014-.77a2.88 2.88 0 0 0-.042-.546c-.159.29-.35.635-.574 1.036-.215.401-.448.83-.7 1.288a39.28 39.28 0 0 1-.784 1.33c-.271.43-.542.821-.812 1.176-.262.355-.514.64-.756.854-.243.215-.462.322-.658.322ZM71.999 24.057c-.78.688-1.479 1.032-2.099 1.032a1.225 1.225 0 0 1-1.272-1.258c0-.488.21-.925.63-1.312.42-.392 1.333-.912 2.741-1.559v-.643c0-.483-.027-.786-.082-.909a.691.691 0 0 0-.294-.328.877.877 0 0 0-.492-.143c-.296 0-.54.066-.732.198-.118.082-.177.177-.177.287 0 .096.064.214.191.355.173.196.26.385.26.568a.763.763 0 0 1-.253.574c-.164.155-.38.232-.65.232-.287 0-.528-.086-.724-.26a.797.797 0 0 1-.287-.608c0-.328.13-.64.39-.936.26-.301.621-.531 1.086-.69.465-.16.948-.24 1.45-.24.606 0 1.084.13 1.435.39.356.255.586.533.69.834.064.191.096.63.096 1.319v2.481c0 .292.012.477.034.554a.329.329 0 0 0 .103.164.245.245 0 0 0 .157.055c.119 0 .24-.084.362-.253l.206.164c-.228.337-.465.583-.711.738-.242.15-.518.226-.828.226-.364 0-.649-.084-.854-.253-.205-.173-.33-.433-.376-.78Zm0-.5v-2.139c-.551.323-.962.67-1.23 1.039-.178.246-.267.494-.267.745 0 .21.075.394.226.554.114.123.273.184.478.184.228 0 .492-.127.793-.382Zm6.125-4.949v1.45c.424-.661.795-1.099 1.114-1.313.32-.219.627-.328.923-.328.255 0 .458.08.608.24.155.154.233.375.233.662 0 .306-.075.543-.226.711a.68.68 0 0 1-.533.253.926.926 0 0 1-.629-.232 3.828 3.828 0 0 0-.314-.26.3.3 0 0 0-.157-.041.574.574 0 0 0-.376.15c-.187.155-.328.376-.424.664-.146.442-.219.93-.219 1.462v1.47l.007.383c0 .26.016.426.048.499a.567.567 0 0 0 .239.273c.11.055.292.09.547.103V25h-3.452v-.246c.278-.023.465-.098.56-.226.1-.132.15-.476.15-1.032v-3.534c0-.365-.018-.597-.054-.697a.549.549 0 0 0-.198-.28c-.087-.06-.24-.1-.458-.124v-.253h2.611Zm6.166-2.878v6.098l1.483-1.456c.306-.296.495-.51.568-.642a.757.757 0 0 0 .116-.383.382.382 0 0 0-.15-.308c-.1-.082-.297-.141-.588-.178v-.253h2.864v.253a1.57 1.57 0 0 0-.718.199c-.205.114-.606.462-1.203 1.046l-.697.683 1.504 2.201c.606.894.966 1.395 1.08 1.504a.9.9 0 0 0 .588.26V25h-3.302v-.246c.146 0 .25-.027.314-.082.069-.055.103-.114.103-.178 0-.105-.096-.298-.287-.58L84.7 22.06l-.41.404v1.148c0 .488.046.793.137.916.09.119.278.194.56.226V25h-3.301v-.246c.268-.027.46-.114.574-.26.077-.1.116-.394.116-.882v-6.494c0-.483-.046-.784-.137-.902-.086-.119-.27-.196-.553-.233v-.253h2.604Z" fill="#F8F8F8"/><mask id="a" style="mask-type:alpha" maskUnits="userSpaceOnUse" x="31" y="0" width="47" height="30"><path d="M31 0h47v16H66.5l-7 14L32 28 31 0Z" fill="#D9D9D9"/></mask><g mask="url(#a)"><path d="m56.828 29.72 8.984-21.825H79.29v.903h-1.074c-.977 0-1.758.17-2.344.513-.407.227-.732.61-.977 1.147-.178.39-.268 1.408-.268 3.052v21.826c0 1.693.09 2.75.268 3.174.18.423.546.797 1.1 1.123.552.31 1.293.464 2.22.464h1.075V41H62.004v-.903h1.074c.977 0 1.758-.171 2.344-.513.407-.228.732-.619.976-1.172.18-.39.269-1.416.269-3.076V10.8L53.972 41h-.586l-12.89-29.98v23.315c0 1.628.04 2.629.121 3.003.212.814.668 1.481 1.367 2.002.716.504 1.831.757 3.345.757V41H34.001v-.903h.342a5.329 5.329 0 0 0 2.05-.342c.635-.26 1.115-.602 1.441-1.026.325-.423.578-1.017.757-1.782.032-.179.049-1.009.049-2.49V13.51c0-1.677-.09-2.718-.269-3.125-.179-.423-.545-.79-1.099-1.099-.553-.325-1.294-.488-2.221-.488H34v-.903h13.525l9.302 21.826Z" fill="#FDC500"/></g><mask id="b" style="mask-type:alpha" maskUnits="userSpaceOnUse" x="31" y="27" width="47" height="16"><path fill="#D9D9D9" d="M31 27h47v16H31z"/></mask><g mask="url(#b)"><path d="m56.828 29.72 8.984-21.825H79.29v.903h-1.074c-.977 0-1.758.17-2.344.513-.407.227-.732.61-.977 1.147-.178.39-.268 1.408-.268 3.052v21.826c0 1.693.09 2.75.268 3.174.18.423.546.797 1.1 1.123.552.31 1.293.464 2.22.464h1.075V41H62.004v-.903h1.074c.977 0 1.758-.171 2.344-.513.407-.228.732-.619.976-1.172.18-.39.269-1.416.269-3.076V10.8L53.972 41h-.586l-12.89-29.98v23.315c0 1.628.04 2.629.121 3.003.212.814.668 1.481 1.367 2.002.716.504 1.831.757 3.345.757V41H34.001v-.903h.342a5.329 5.329 0 0 0 2.05-.342c.635-.26 1.115-.602 1.441-1.026.325-.423.578-1.017.757-1.782.032-.179.049-1.009.049-2.49V13.51c0-1.677-.09-2.718-.269-3.125-.179-.423-.545-.79-1.099-1.099-.553-.325-1.294-.488-2.221-.488H34v-.903h13.525l9.302 21.826Z" fill="#FDC500"/></g></svg>