<svg width="46" height="34" viewBox="0 0 46 34" fill="none" xmlns="http://www.w3.org/2000/svg">
<path d="M22.8281 22.7207L31.8125 0.894531H45.2891V1.79785H44.2148C43.2383 1.79785 42.457 1.96875 41.8711 2.31055C41.4642 2.53841 41.1387 2.9209 40.8945 3.45801C40.7155 3.84863 40.626 4.86589 40.626 6.50977V28.3359C40.626 30.0286 40.7155 31.0866 40.8945 31.5098C41.0736 31.9329 41.4398 32.3073 41.9932 32.6328C42.5465 32.9421 43.2871 33.0967 44.2148 33.0967H45.2891V34H28.0039V33.0967H29.0781C30.0547 33.0967 30.8359 32.9258 31.4219 32.584C31.8288 32.3561 32.1543 31.9655 32.3984 31.4121C32.5775 31.0215 32.667 29.9961 32.667 28.3359V3.7998L19.9717 34H19.3857L6.49512 4.01953V27.335C6.49512 28.9626 6.53581 29.9635 6.61719 30.3379C6.82878 31.1517 7.28451 31.819 7.98438 32.3398C8.70052 32.8444 9.81543 33.0967 11.3291 33.0967V34H0.000976562V33.0967H0.342773C1.0752 33.113 1.75879 32.999 2.39355 32.7549C3.02832 32.4945 3.50846 32.1527 3.83398 31.7295C4.15951 31.3063 4.41178 30.7122 4.59082 29.9473C4.62337 29.7682 4.63965 28.9382 4.63965 27.457V6.50977C4.63965 4.83333 4.55013 3.79167 4.37109 3.38477C4.19206 2.96159 3.82585 2.59538 3.27246 2.28613C2.71908 1.96061 1.97852 1.79785 1.05078 1.79785H0.000976562V0.894531H13.5264L22.8281 22.7207Z" fill="#FDC500"/>
</svg>
