<svg width="41" height="41" viewBox="0 0 41 41" fill="none" xmlns="http://www.w3.org/2000/svg">
<path d="M37.6106 0.8125H3.76442C2.94837 0.8125 2.16574 1.19562 1.58871 1.87757C1.01167 2.55952 0.6875 3.48444 0.6875 4.44886V37.1761C0.6875 38.1406 1.01167 39.0655 1.58871 39.7474C2.16574 40.4294 2.94837 40.8125 3.76442 40.8125H37.6106C38.4266 40.8125 39.2093 40.4294 39.7863 39.7474C40.3633 39.0655 40.6875 38.1406 40.6875 37.1761V4.44886C40.6875 3.48444 40.3633 2.55952 39.7863 1.87757C39.2093 1.19562 38.4266 0.8125 37.6106 0.8125ZM35.6221 11.1898L17.1606 33.008C17.0177 33.177 16.848 33.3111 16.6613 33.4026C16.4745 33.4941 16.2743 33.5412 16.0721 33.5412C15.8699 33.5412 15.6697 33.4941 15.483 33.4026C15.2962 33.3111 15.1265 33.177 14.9837 33.008L7.29135 23.917C7.00267 23.5759 6.84049 23.1132 6.84049 22.6307C6.84049 22.1482 7.00267 21.6855 7.29135 21.3443C7.58002 21.0032 7.97156 20.8115 8.37981 20.8115C8.78806 20.8115 9.17959 21.0032 9.46827 21.3443L16.0721 29.1511L33.4452 8.61704C33.7339 8.27588 34.1254 8.08422 34.5337 8.08422C34.9419 8.08422 35.3334 8.27588 35.6221 8.61704C35.9108 8.95821 36.073 9.42093 36.073 9.90341C36.073 10.3859 35.9108 10.8486 35.6221 11.1898Z" fill="#FFCD05"/>
</svg>
