<svg width="150" height="150" viewBox="0 0 150 150" fill="none" xmlns="http://www.w3.org/2000/svg">
<path fill-rule="evenodd" clip-rule="evenodd" d="M150 75C150 116.421 116.421 150 75 150C33.5786 150 0 116.421 0 75C0 33.5786 33.5786 0 75 0C116.421 0 150 33.5786 150 75ZM84.144 50.072L68.208 95H54.512L38.576 50.072H50.224L61.36 83.992L72.56 50.072H84.144ZM89.392 104.848C91.9947 105.915 94.9387 106.448 98.224 106.448C101.595 106.448 104.517 105.829 106.992 104.592C109.467 103.355 111.344 101.691 112.624 99.6C113.947 97.5093 114.608 95.184 114.608 92.624C114.608 89.936 113.947 87.7387 112.624 86.032C111.301 84.3253 109.723 83.024 107.888 82.128C106.096 81.232 103.749 80.2933 100.848 79.312C97.9467 78.3733 95.8133 77.4987 94.448 76.688C93.0827 75.8773 92.4 74.7467 92.4 73.296C92.4 71.9733 92.8053 70.9707 93.616 70.288C94.4267 69.5627 95.4933 69.2 96.816 69.2C98.352 69.2 99.6107 69.6267 100.592 70.48C101.573 71.2907 102.107 72.4213 102.192 73.872H114.032C113.819 69.648 112.197 66.3627 109.168 64.016C106.139 61.6267 102.149 60.432 97.2 60.432C92.336 60.432 88.3893 61.6267 85.36 64.016C82.3307 66.3627 80.816 69.6267 80.816 73.808C80.816 76.624 81.4773 78.9067 82.8 80.656C84.1227 82.4053 85.7013 83.728 87.536 84.624C89.3707 85.52 91.7387 86.416 94.64 87.312C96.6453 87.9093 98.1813 88.4427 99.248 88.912C100.357 89.3813 101.275 89.9787 102 90.704C102.768 91.4293 103.152 92.3467 103.152 93.456C103.152 94.7787 102.683 95.824 101.744 96.592C100.805 97.3173 99.5253 97.68 97.904 97.68C96.3253 97.68 95.0453 97.2533 94.064 96.4C93.0827 95.504 92.5067 94.224 92.336 92.56H80.688C80.7733 95.504 81.584 98.0213 83.12 100.112C84.6987 102.203 86.7893 103.781 89.392 104.848Z" fill="#FFCD05"/>
</svg>
